<?xml version="1.0" standalone="no"?>
<!DOCTYPE svg PUBLIC "-//W3C//DTD SVG 20010904//EN"
 "http://www.w3.org/TR/2001/REC-SVG-20010904/DTD/svg10.dtd">
<svg version="1.0" xmlns="http://www.w3.org/2000/svg"
 width="350.000000pt" height="350.000000pt" viewBox="0 0 350.000000 350.000000"
 preserveAspectRatio="xMidYMid meet">
<metadata>
Created by potrace 1.11, written by Peter Selinger 2001-2013
</metadata>
<g transform="translate(0.000000,350.000000) scale(0.100000,-0.100000)"
fill="#000000" stroke="none">
<path d="M1650 3444 c-157 -161 -696 -622 -1040 -889 -207 -160 -247 -195
-345 -297 -107 -111 -154 -185 -180 -283 -47 -183 30 -398 177 -491 64 -41
150 -64 235 -64 88 0 166 16 437 89 105 28 194 51 199 51 5 0 -16 -27 -47 -60
-71 -78 -109 -133 -151 -223 -48 -102 -65 -176 -65 -288 0 -165 51 -283 178
-412 84 -86 121 -112 265 -185 114 -58 293 -129 303 -120 2 3 -14 18 -37 33
-119 84 -229 242 -265 385 -28 109 -12 261 40 381 19 46 128 148 381 359 110
92 226 194 258 228 65 69 117 168 117 225 0 79 -55 158 -140 202 -129 66 -274
61 -582 -19 -233 -60 -544 -126 -593 -125 -29 0 -26 4 65 91 115 110 251 228
425 367 158 127 300 263 365 351 147 199 199 391 152 571 -16 59 -77 179 -92
179 -3 0 -30 -25 -60 -56z"/>
<path d="M809 1246 c-1 -3 -2 -20 -3 -37 -1 -30 -2 -31 -53 -33 -34 -1 -58 -8
-72 -20 -41 -37 -35 -162 9 -186 28 -15 86 -12 100 5 16 20 30 19 30 -1 0 -9
6 -14 13 -11 9 3 12 40 12 143 0 124 -2 139 -18 142 -9 2 -18 1 -18 -2z m-12
-109 c10 -7 10 -81 0 -114 -8 -22 -45 -37 -70 -27 -40 15 -46 113 -9 140 16
12 59 13 79 1z"/>
<path d="M2100 1106 c0 -132 2 -144 18 -142 14 2 17 14 19 62 1 32 2 65 2 72
2 22 39 51 62 47 41 -8 49 -24 48 -94 -1 -90 -1 -90 19 -87 15 3 17 15 17 94
0 54 -5 96 -11 102 -22 22 -81 29 -104 13 -27 -19 -31 -15 -33 36 -1 32 -5 41
-19 41 -16 0 -18 -12 -18 -144z"/>
<path d="M2364 1235 c-4 -10 -1 -21 7 -26 20 -12 34 -5 34 17 0 24 -33 31 -41
9z"/>
<path d="M1515 1217 c-10 -8 -15 -19 -11 -25 5 -8 0 -12 -13 -12 -15 0 -21 -6
-21 -21 0 -15 5 -19 15 -15 18 6 17 10 19 -81 1 -41 8 -78 15 -87 23 -27 105
-18 94 10 -3 9 -13 12 -28 8 -30 -7 -37 6 -40 77 -3 64 0 68 39 71 32 3 32 33
1 33 -31 1 -46 15 -40 36 7 22 -4 24 -30 6z"/>
<path d="M272 1182 c-12 -2 -30 -14 -38 -27 -24 -37 -7 -75 42 -92 56 -19 70
-36 49 -57 -19 -19 -33 -20 -70 -6 -20 8 -27 7 -32 -6 -8 -22 14 -34 68 -34
53 0 82 23 82 67 0 29 -34 63 -63 63 -10 0 -26 7 -35 16 -31 31 20 58 65 34
14 -7 20 -6 24 7 4 9 4 18 2 20 -8 9 -71 19 -94 15z"/>
<path d="M1712 1178 c-48 -13 -74 -59 -67 -123 7 -67 37 -95 103 -95 51 1 85
19 73 38 -6 10 -15 10 -36 2 -33 -13 -95 4 -95 25 0 7 -2 20 -5 27 -4 11 10
14 67 13 57 -1 74 2 79 14 7 17 -5 69 -19 83 -16 16 -68 25 -100 16z m71 -46
c23 -26 8 -39 -45 -40 -41 -1 -48 2 -48 18 0 38 65 53 93 22z"/>
<path d="M1975 1184 c-5 -1 -22 -5 -37 -8 -35 -8 -58 -52 -60 -110 -1 -52 15
-84 48 -96 33 -13 81 -13 105 1 30 15 12 32 -27 24 -69 -13 -113 80 -63 134
18 19 28 22 61 17 34 -6 39 -4 36 11 -3 16 -42 33 -63 27z"/>
<path d="M2575 1184 c-5 -1 -22 -5 -37 -8 -38 -9 -63 -50 -64 -108 -2 -65 35
-108 93 -108 57 0 83 10 83 30 0 16 -5 17 -30 10 -16 -5 -37 -7 -47 -5 -10 2
-23 4 -29 4 -17 1 -37 53 -24 61 6 4 40 5 75 4 l65 -2 0 39 c0 49 -45 93 -85
83z m39 -53 c23 -25 4 -39 -56 -39 -39 0 -46 2 -41 16 15 42 68 55 97 23z"/>
<path d="M448 1173 c-10 -2 -18 -13 -18 -23 0 -15 5 -17 35 -10 56 13 85 2 85
-29 0 -15 -8 -19 -42 -19 -46 -1 -89 -27 -94 -57 -10 -57 56 -91 114 -61 29
15 32 15 41 -1 17 -31 24 -5 22 84 -1 76 -5 90 -22 106 -20 16 -79 21 -121 10z
m95 -112 c5 -1 7 -11 5 -23 -6 -44 -88 -57 -94 -15 -3 22 29 44 58 41 13 -1
27 -3 31 -3z"/>
<path d="M2367 1173 c-3 -7 -2 -167 2 -200 0 -6 9 -10 18 -9 16 3 18 16 18
102 1 91 -5 113 -27 114 -4 0 -9 -3 -11 -7z"/>
</g>
</svg>
